<svg xmlns="http://www.w3.org/2000/svg" viewBox="0 0 64 64" role="img" aria-label="GBR">
  <defs>
    <linearGradient id="g" x1="0%" y1="0%" x2="100%" y2="100%">
      <stop offset="0%" stop-color="#43d5b3" />
      <stop offset="100%" stop-color="#ffbc57" />
    </linearGradient>
  </defs>
  <rect width="64" height="64" rx="18" fill="#08141f" />
  <path
    d="M19 19h17c6 0 10 3.4 10 9 0 4.2-2.3 6.9-5.4 7.9 3.8.9 6.4 3.9 6.4 8.5 0 6-4.6 10.6-12 10.6H19Zm8 7.4v6.2h8.1c2.4 0 3.7-1 3.7-3.1s-1.3-3.1-3.7-3.1Zm0 13.1V47h8.9c2.6 0 4.1-1.4 4.1-3.7s-1.5-3.8-4.1-3.8Z"
    fill="url(#g)"
  />
</svg>
