<svg xmlns="http://www.w3.org/2000/svg" viewBox="0 0 88 56" role="img" aria-label="English language toggle">
  <defs>
    <clipPath id="leftHalf">
      <rect x="0" y="0" width="44" height="56" rx="12"/>
    </clipPath>
    <clipPath id="rightHalf">
      <rect x="44" y="0" width="44" height="56" rx="12"/>
    </clipPath>
  </defs>
  <rect width="88" height="56" rx="16" fill="#fff"/>
  <g clip-path="url(#leftHalf)">
    <rect width="44" height="56" fill="#0A3A8B"/>
    <path d="M0 0L44 56M44 0L0 56" stroke="#fff" stroke-width="12"/>
    <path d="M0 0L44 56M44 0L0 56" stroke="#D62828" stroke-width="6"/>
    <path d="M22 0V56M0 28H44" stroke="#fff" stroke-width="16"/>
    <path d="M22 0V56M0 28H44" stroke="#D62828" stroke-width="9"/>
  </g>
  <g clip-path="url(#rightHalf)">
    <rect x="44" width="44" height="56" fill="#fff"/>
    <rect x="44" y="0" width="44" height="6" fill="#D62828"/>
    <rect x="44" y="12" width="44" height="6" fill="#D62828"/>
    <rect x="44" y="24" width="44" height="6" fill="#D62828"/>
    <rect x="44" y="36" width="44" height="6" fill="#D62828"/>
    <rect x="44" y="48" width="44" height="6" fill="#D62828"/>
    <rect x="44" y="0" width="22" height="22" fill="#0A3A8B"/>
    <g fill="#fff">
      <circle cx="50" cy="6" r="1.4"/>
      <circle cx="58" cy="10" r="1.4"/>
      <circle cx="62" cy="6" r="1.4"/>
      <circle cx="54" cy="16" r="1.4"/>
      <circle cx="64" cy="16" r="1.4"/>
    </g>
  </g>
  <rect x="1.5" y="1.5" width="85" height="53" rx="14.5" fill="none" stroke="#19221D" stroke-width="3"/>
</svg>
