<svg xmlns="http://www.w3.org/2000/svg" viewBox="0 0 960 720" role="img" aria-label="Bandeira do Brasil em interpretação brutalista">
  <rect width="960" height="720" rx="54" fill="#2c6636"/>
  <rect x="20" y="20" width="920" height="680" rx="42" fill="none" stroke="#111827" stroke-width="16"/>
  <path d="M480 118L818 360L480 602L142 360Z" fill="#f59e0b" stroke="#111827" stroke-width="16" stroke-linejoin="round"/>
  <circle cx="480" cy="360" r="154" fill="#1c3f95" stroke="#111827" stroke-width="16"/>
  <path d="M286 360C368 308 472 292 674 338" fill="none" stroke="#fffaf1" stroke-width="34" stroke-linecap="round"/>
  <path d="M34 584C170 462 276 416 430 410" fill="none" stroke="#111827" stroke-width="18" stroke-linecap="round" opacity=".14"/>
  <path d="M556 132C684 174 784 264 906 430" fill="none" stroke="#111827" stroke-width="18" stroke-linecap="round" opacity=".14"/>
  <g fill="#fffaf1">
    <circle cx="408" cy="304" r="10"/>
    <circle cx="446" cy="280" r="9"/>
    <circle cx="498" cy="272" r="11"/>
    <circle cx="548" cy="286" r="8"/>
    <circle cx="592" cy="312" r="9"/>
    <circle cx="632" cy="336" r="7"/>
  </g>
</svg>
