<svg xmlns="http://www.w3.org/2000/svg" viewBox="0 0 1600 1000" role="img" aria-label="Placeholder para repositórios ou pull requests">
  <rect width="1600" height="1000" fill="#fffaf1"/>
  <rect x="58" y="58" width="1484" height="884" rx="42" fill="#f5efe3" stroke="#19221d" stroke-width="8"/>
  <rect x="88" y="88" width="494" height="82" rx="20" fill="#2c6636"/>
  <text x="128" y="140" fill="#fffaf1" font-family="IBM Plex Mono, monospace" font-size="34">repositórios / prs / atividade</text>
  <g transform="translate(110,220)">
    <rect width="620" height="640" rx="34" fill="#fffaf1" stroke="#19221d" stroke-width="6"/>
    <rect x="40" y="42" width="220" height="36" rx="18" fill="#d4e8d4"/>
    <text x="52" y="67" fill="#1e4d26" font-family="IBM Plex Mono, monospace" font-size="24">repo destacado</text>
    <rect x="40" y="116" width="540" height="118" rx="22" fill="#fffaf1" stroke="#19221d" stroke-width="4"/>
    <rect x="40" y="260" width="540" height="118" rx="22" fill="#fffaf1" stroke="#19221d" stroke-width="4"/>
    <rect x="40" y="404" width="540" height="118" rx="22" fill="#fffaf1" stroke="#19221d" stroke-width="4"/>
    <text x="68" y="164" fill="#1e4d26" font-family="Space Grotesk, sans-serif" font-size="34">Pull requests, branch history</text>
    <text x="68" y="205" fill="#4b5563" font-family="Space Grotesk, sans-serif" font-size="28">ou contribuições específicas.</text>
    <text x="68" y="308" fill="#1e4d26" font-family="Space Grotesk, sans-serif" font-size="34">Esse tipo de prova ajuda</text>
    <text x="68" y="349" fill="#4b5563" font-family="Space Grotesk, sans-serif" font-size="28">a mostrar execução rastreável.</text>
    <text x="68" y="452" fill="#1e4d26" font-family="Space Grotesk, sans-serif" font-size="34">Pode ser privado ou público,</text>
    <text x="68" y="493" fill="#4b5563" font-family="Space Grotesk, sans-serif" font-size="28">desde que o recorte seja legível.</text>
    <path d="M460 40C560 40 640 120 640 220V240H460C394 240 340 186 340 120V40Z" fill="#f59e0b" opacity=".24"/>
  </g>
  <g transform="translate(782,220)">
    <rect width="708" height="640" rx="34" fill="#1e4d26" stroke="#19221d" stroke-width="6"/>
    <rect x="40" y="44" width="626" height="84" rx="20" fill="rgba(255,250,241,.12)" stroke="rgba(255,250,241,.18)" stroke-width="4"/>
    <rect x="40" y="158" width="626" height="84" rx="20" fill="rgba(255,250,241,.12)" stroke="rgba(255,250,241,.18)" stroke-width="4"/>
    <rect x="40" y="272" width="626" height="84" rx="20" fill="rgba(255,250,241,.12)" stroke="rgba(255,250,241,.18)" stroke-width="4"/>
    <rect x="40" y="386" width="626" height="84" rx="20" fill="rgba(255,250,241,.12)" stroke="rgba(255,250,241,.18)" stroke-width="4"/>
    <text x="74" y="98" fill="#fffaf1" font-family="IBM Plex Mono, monospace" font-size="26">issues resolvidas</text>
    <text x="74" y="212" fill="#fffaf1" font-family="IBM Plex Mono, monospace" font-size="26">commits em sequência</text>
    <text x="74" y="326" fill="#fffaf1" font-family="IBM Plex Mono, monospace" font-size="26">releases e changelog</text>
    <text x="74" y="440" fill="#fffaf1" font-family="IBM Plex Mono, monospace" font-size="26">participação técnica</text>
  </g>
</svg>
