<svg xmlns="http://www.w3.org/2000/svg" viewBox="0 0 64 64" role="img" aria-label="AbacatePay">
  <rect width="64" height="64" rx="18" fill="#EEF6EE"/>
  <path d="M34 14c4.8 0 8 2.5 9 6.5 6.1 2.1 10 8 10 15.1C53 46.6 44.8 54 34.5 54 22.9 54 14 45.8 14 35.5c0-8.4 5.7-15.3 13.6-17.7C28.5 15.2 30.9 14 34 14Z" fill="#4ADE80"/>
  <path d="M34 14c-4 1.5-6.5 4.8-6.5 9 0 2 .6 4 1.7 5.6-3.6 2.5-5.9 6.6-5.9 11.2 0 6.4 4.7 11.8 10.9 13.1-10.8.2-20.2-7.6-20.2-17.4 0-8.4 5.7-15.3 13.6-17.7C28.5 15.2 30.9 14 34 14Z" fill="#2C6636" opacity=".92"/>
  <circle cx="41" cy="26" r="2.4" fill="#1E4D26"/>
  <path d="M34 13c1.8-3.8 5.2-5.7 10-5 0 4.1-2.6 6.7-7.2 7.6" fill="none" stroke="#1E4D26" stroke-width="3" stroke-linecap="round"/>
</svg>
